# WaveFront *.obj file (generated by Autodesk ATF)

mtllib Suniaster.mtl

g Solid1

v -3.000000 0.000000 -4.854102
v 0.000000 4.854102 -3.000000
v 0.000000 1.145898 -3.000000
v 3.000000 -0.000000 -4.854102
v -1.854102 1.854102 -1.854102
v -4.854102 3.000000 0.000000
v -4.854102 -3.000000 -0.000000
v -3.000000 -0.000000 1.145898
v -3.000000 -0.000000 4.854102
v -3.000000 -0.000000 -1.145898
v -0.000000 -4.854102 -3.000000
v 0.000000 -1.145898 -3.000000
v -1.854102 -1.854102 -1.854102
v 0.000000 -4.854102 3.000000
v -1.854102 -1.854102 1.854102
v -1.145898 -3.000000 -0.000000
v 4.854102 -3.000000 -0.000000
v 1.854102 -1.854102 -1.854102
v 1.145898 -3.000000 -0.000000
v 3.000000 -0.000000 4.854102
v 0.000000 -1.145898 3.000000
v 1.854102 -1.854102 1.854102
v 4.854102 3.000000 0.000000
v 3.000000 0.000000 -1.145898
v 3.000000 0.000000 1.145898
v 0.000000 4.854102 3.000000
v 0.000000 1.145898 3.000000
v 1.854102 1.854102 1.854102
v 1.854102 1.854102 -1.854102
v 1.145898 3.000000 0.000000
v -1.854102 1.854102 1.854102
v -1.145898 3.000000 0.000000
vt -0.000000 0.000000 0.000000
vt -12.329419 -8.957847 0.000000
vt -2.910581 -8.957847 0.000000
vt -0.000000 0.000000 0.000000
vt -12.329419 8.957847 0.000000
vt -9.418838 0.000000 0.000000
vt -0.000000 0.000000 0.000000
vt -15.240000 -0.000000 0.000000
vt -7.620000 -5.536254 0.000000
vt 12.329419 -8.957847 0.000000
vt 0.000000 -0.000000 0.000000
vt 2.910581 -8.957847 0.000000
vt 12.329419 8.957847 0.000000
vt -0.000000 -0.000000 0.000000
vt 9.418838 0.000000 0.000000
vt 15.240000 0.000000 0.000000
vt -0.000000 -0.000000 0.000000
vt 7.620000 -5.536254 0.000000
vt -12.329419 -8.957847 0.000000
vt -2.910581 -8.957847 0.000000
vt -0.000000 -0.000000 0.000000
vt -12.329419 8.957847 0.000000
vt -9.418838 0.000000 0.000000
vt 0.000000 0.000000 0.000000
vt -15.240000 -0.000000 0.000000
vt -7.620000 -5.536254 0.000000
vt 12.329419 -8.957847 0.000000
vt -0.000000 -0.000000 0.000000
vt 2.910581 -8.957847 0.000000
vt 12.329419 8.957847 0.000000
vt 0.000000 -0.000000 0.000000
vt 9.418838 0.000000 0.000000
vt 15.240000 0.000000 0.000000
vt 0.000000 0.000000 0.000000
vt 7.620000 -5.536254 0.000000
vt -0.000000 0.000000 0.000000
vt -12.329419 -8.957847 0.000000
vt -2.910581 -8.957847 0.000000
vt -0.000000 0.000000 0.000000
vt -12.329419 8.957847 0.000000
vt -9.418838 0.000000 0.000000
vt -0.000000 0.000000 0.000000
vt -15.240000 -0.000000 0.000000
vt -7.620000 -5.536254 0.000000
vt 12.329419 -8.957847 0.000000
vt 0.000000 -0.000000 0.000000
vt 2.910581 -8.957847 0.000000
vt 12.329419 8.957847 0.000000
vt -0.000000 0.000000 0.000000
vt 9.418838 0.000000 0.000000
vt 15.240000 0.000000 0.000000
vt -0.000000 -0.000000 0.000000
vt 7.620000 -5.536254 0.000000
vt -12.329419 -8.957847 0.000000
vt -2.910581 -8.957847 0.000000
vt -0.000000 -0.000000 0.000000
vt -12.329419 8.957847 0.000000
vt -9.418838 0.000000 0.000000
vt -0.000000 0.000000 0.000000
vt -15.240000 -0.000000 0.000000
vt -7.620000 -5.536254 0.000000
vt 12.329419 -8.957847 0.000000
vt -0.000000 -0.000000 0.000000
vt 2.910581 -8.957847 0.000000
vt 12.329419 8.957847 0.000000
vt 0.000000 -0.000000 0.000000
vt 9.418838 0.000000 0.000000
vt 15.240000 -0.000000 0.000000
vt 0.000000 0.000000 0.000000
vt 7.620000 -5.536254 0.000000
vt -0.000000 0.000000 0.000000
vt -12.329419 -8.957847 0.000000
vt -2.910581 -8.957847 0.000000
vt 0.000000 0.000000 0.000000
vt -12.329419 8.957847 0.000000
vt -9.418838 0.000000 0.000000
vt -0.000000 0.000000 0.000000
vt -15.240000 -0.000000 0.000000
vt -7.620000 -5.536254 0.000000
vt 12.329419 -8.957847 0.000000
vt 0.000000 -0.000000 0.000000
vt 2.910581 -8.957847 0.000000
vt 12.329419 8.957847 0.000000
vt 0.000000 0.000000 0.000000
vt 9.418838 0.000000 0.000000
vt 15.240000 0.000000 0.000000
vt 0.000000 -0.000000 0.000000
vt 7.620000 -5.536254 0.000000
vt -12.329419 -8.957847 0.000000
vt -2.910581 -8.957847 0.000000
vt -0.000000 -0.000000 0.000000
vt -12.329419 8.957847 0.000000
vt -9.418838 0.000000 0.000000
vt 0.000000 0.000000 0.000000
vt -15.240000 -0.000000 0.000000
vt -7.620000 -5.536254 0.000000
vt 12.329419 -8.957847 0.000000
vt -0.000000 -0.000000 0.000000
vt 2.910581 -8.957847 0.000000
vt 12.329419 8.957847 0.000000
vt 0.000000 -0.000000 0.000000
vt 9.418838 -0.000000 0.000000
vt 15.240000 -0.000000 0.000000
vt 0.000000 0.000000 0.000000
vt 7.620000 -5.536254 0.000000
vt -0.000000 0.000000 0.000000
vt -12.329419 -8.957847 0.000000
vt -2.910581 -8.957847 0.000000
vt 0.000000 -0.000000 0.000000
vt -12.329419 8.957847 0.000000
vt -9.418838 0.000000 0.000000
vt -0.000000 -0.000000 0.000000
vt -15.240000 -0.000000 0.000000
vt -7.620000 -5.536254 0.000000
vt 12.329419 -8.957847 0.000000
vt 0.000000 -0.000000 0.000000
vt 2.910581 -8.957847 0.000000
vt 12.329419 8.957847 0.000000
vt -0.000000 0.000000 0.000000
vt 9.418838 0.000000 0.000000
vt 15.240000 0.000000 0.000000
vt 0.000000 -0.000000 0.000000
vt 7.620000 -5.536254 0.000000
vt -12.329419 -8.957847 0.000000
vt -2.910581 -8.957847 0.000000
vt -0.000000 -0.000000 0.000000
vt -12.329419 8.957847 0.000000
vt -9.418838 0.000000 0.000000
vt -0.000000 0.000000 0.000000
vt -15.240000 -0.000000 0.000000
vt -7.620000 -5.536254 0.000000
vt 12.329419 -8.957847 0.000000
vt -0.000000 -0.000000 0.000000
vt 2.910581 -8.957847 0.000000
vt 12.329419 8.957847 0.000000
vt 0.000000 0.000000 0.000000
vt 9.418838 0.000000 0.000000
vt 15.240000 -0.000000 0.000000
vt 0.000000 0.000000 0.000000
vt 7.620000 -5.536254 0.000000
vt -0.000000 -0.000000 0.000000
vt -12.329419 -8.957847 0.000000
vt -2.910581 -8.957847 0.000000
vt 0.000000 -0.000000 0.000000
vt -12.329419 8.957847 0.000000
vt -9.418838 0.000000 0.000000
vt -0.000000 0.000000 0.000000
vt -15.240000 -0.000000 0.000000
vt -7.620000 -5.536254 0.000000
vt 12.329419 -8.957847 0.000000
vt 0.000000 -0.000000 0.000000
vt 2.910581 -8.957847 0.000000
vt 12.329419 8.957847 0.000000
vt -0.000000 0.000000 0.000000
vt 9.418838 0.000000 0.000000
vt 15.240000 -0.000000 0.000000
vt 0.000000 -0.000000 0.000000
vt 7.620000 -5.536254 0.000000
vt -12.329419 -8.957847 0.000000
vt -2.910581 -8.957847 0.000000
vt 0.000000 -0.000000 0.000000
vt -12.329419 8.957847 0.000000
vt -9.418838 0.000000 0.000000
vt -0.000000 0.000000 0.000000
vt -15.240000 -0.000000 0.000000
vt -7.620000 -5.536254 0.000000
vt 12.329419 -8.957847 0.000000
vt -0.000000 -0.000000 0.000000
vt 2.910581 -8.957847 0.000000
vt 12.329419 8.957847 0.000000
vt -0.000000 0.000000 0.000000
vt 9.418838 0.000000 0.000000
vt 15.240000 0.000000 0.000000
vt 0.000000 0.000000 0.000000
vt 7.620000 -5.536254 0.000000
vn 1.335357 0.000000 -2.160653
vn 1.335357 0.000000 -2.160653
vn 1.335357 0.000000 -2.160653
vn -1.335357 -0.000000 -2.160653
vn -1.335357 -0.000000 -2.160653
vn -1.335357 -0.000000 -2.160653
vn -0.000000 2.160653 -1.335357
vn -0.000000 2.160653 -1.335357
vn -0.000000 2.160653 -1.335357
vn -2.160653 1.335357 -0.000000
vn -2.160653 1.335357 -0.000000
vn -2.160653 1.335357 -0.000000
vn -1.335357 0.000000 -2.160653
vn -1.335357 0.000000 -2.160653
vn -0.000000 2.160653 -1.335357
vn -0.000000 2.160653 -1.335357
vn -1.335357 -0.000000 2.160653
vn -1.335357 -0.000000 2.160653
vn -1.335357 -0.000000 2.160653
vn -2.160653 1.335357 0.000000
vn -2.160653 1.335357 0.000000
vn -2.160653 1.335357 0.000000
vn -2.160653 -1.335357 -0.000000
vn -2.160653 -1.335357 -0.000000
vn -2.160653 -1.335357 -0.000000
vn -1.335357 0.000000 -2.160653
vn -1.335357 0.000000 -2.160653
vn -2.160653 1.335357 -0.000000
vn -2.160653 -1.335357 -0.000000
vn -2.160653 -1.335357 -0.000000
vn 1.335357 0.000000 -2.160653
vn 1.335357 0.000000 -2.160653
vn 0.000000 -2.160653 -1.335357
vn 0.000000 -2.160653 -1.335357
vn 0.000000 -2.160653 -1.335357
vn -1.335357 0.000000 -2.160653
vn -1.335357 0.000000 -2.160653
vn -2.160653 -1.335357 -0.000000
vn -2.160653 -1.335357 -0.000000
vn 0.000000 -2.160653 -1.335357
vn 0.000000 -2.160653 -1.335357
vn -1.335357 -0.000000 -2.160653
vn -1.335357 -0.000000 2.160653
vn -1.335357 -0.000000 2.160653
vn -2.160653 -1.335357 -0.000000
vn -2.160653 -1.335357 -0.000000
vn 0.000000 -2.160653 1.335357
vn 0.000000 -2.160653 1.335357
vn 0.000000 -2.160653 1.335357
vn 0.000000 -2.160653 -1.335357
vn 0.000000 -2.160653 -1.335357
vn -2.160653 -1.335357 -0.000000
vn 0.000000 -2.160653 1.335357
vn 0.000000 -2.160653 1.335357
vn 1.335357 0.000000 -2.160653
vn 1.335357 0.000000 -2.160653
vn 2.160653 -1.335357 -0.000000
vn 2.160653 -1.335357 -0.000000
vn 2.160653 -1.335357 -0.000000
vn 0.000000 -2.160653 -1.335357
vn 0.000000 -2.160653 -1.335357
vn 0.000000 -2.160653 1.335357
vn 0.000000 -2.160653 1.335357
vn 2.160653 -1.335357 -0.000000
vn 2.160653 -1.335357 -0.000000
vn 0.000000 -2.160653 -1.335357
vn -1.335357 -0.000000 2.160653
vn -1.335357 -0.000000 2.160653
vn 0.000000 -2.160653 1.335357
vn 0.000000 -2.160653 1.335357
vn 1.335357 -0.000000 2.160653
vn 1.335357 -0.000000 2.160653
vn 1.335357 -0.000000 2.160653
vn 2.160653 -1.335357 -0.000000
vn 2.160653 -1.335357 -0.000000
vn 0.000000 -2.160653 1.335357
vn 1.335357 -0.000000 2.160653
vn 1.335357 -0.000000 2.160653
vn 1.335357 0.000000 -2.160653
vn 1.335357 0.000000 -2.160653
vn 2.160653 1.335357 -0.000000
vn 2.160653 1.335357 -0.000000
vn 2.160653 1.335357 -0.000000
vn 2.160653 -1.335357 -0.000000
vn 2.160653 -1.335357 -0.000000
vn 1.335357 0.000000 2.160653
vn 1.335357 0.000000 2.160653
vn 2.160653 1.335357 -0.000000
vn 2.160653 1.335357 -0.000000
vn 2.160653 -1.335357 -0.000000
vn -1.335357 -0.000000 2.160653
vn -1.335357 -0.000000 2.160653
vn 1.335357 -0.000000 2.160653
vn 1.335357 -0.000000 2.160653
vn 0.000000 2.160653 1.335357
vn 0.000000 2.160653 1.335357
vn 0.000000 2.160653 1.335357
vn 2.160653 1.335357 -0.000000
vn 2.160653 1.335357 -0.000000
vn 1.335357 0.000000 2.160653
vn 0.000000 2.160653 1.335357
vn 0.000000 2.160653 1.335357
vn 1.335357 -0.000000 -2.160653
vn 0.000000 2.160653 -1.335357
vn 0.000000 2.160653 -1.335357
vn 2.160653 1.335357 -0.000000
vn 2.160653 1.335357 -0.000000
vn -0.000000 2.160653 1.335357
vn -0.000000 2.160653 1.335357
vn 0.000000 2.160653 -1.335357
vn 0.000000 2.160653 -1.335357
vn 2.160653 1.335357 0.000000
vn -1.335357 -0.000000 2.160653
vn -0.000000 2.160653 1.335357
vn -0.000000 2.160653 1.335357
vn -2.160653 1.335357 0.000000
vn -2.160653 1.335357 0.000000
vn -0.000000 2.160653 -1.335357
vn -0.000000 2.160653 1.335357
vn -2.160653 1.335357 -0.000000
usemtl 40,226,254
f 1/1/1 2/2/2 3/3/3
f 2/4/4 4/5/5 3/6/6
f 4/7/7 1/8/8 3/9/9
f 2/10/10 1/11/11 5/12/12
f 6/13/13 2/14/4 5/15/14
f 1/16/8 6/17/15 5/18/16
f 6/17/17 7/19/18 8/20/19
f 7/21/20 9/22/21 8/23/22
f 9/24/23 6/25/24 8/26/25
f 7/27/26 6/28/13 10/29/27
f 1/30/11 7/31/20 10/32/28
f 6/33/24 1/34/29 10/35/30
f 11/36/31 1/37/1 12/38/32
f 1/39/33 4/40/34 12/41/35
f 4/42/5 11/43/36 12/44/37
f 1/45/29 11/46/38 13/47/39
f 7/48/40 1/49/33 13/50/41
f 11/51/36 7/52/26 13/53/42
f 7/52/18 14/54/43 15/55/44
f 14/56/45 9/57/23 15/58/46
f 9/59/47 7/60/48 15/61/49
f 14/62/50 7/63/40 16/64/51
f 11/65/38 14/66/45 16/67/52
f 7/68/48 11/69/53 16/70/54
f 17/71/55 11/72/31 18/73/56
f 11/74/57 4/75/58 18/76/59
f 4/77/34 17/78/60 18/79/61
f 11/80/53 17/81/62 19/82/63
f 14/83/64 11/84/57 19/85/65
f 17/86/60 14/87/50 19/88/66
f 14/87/43 20/89/67 21/90/68
f 20/91/69 9/92/47 21/93/70
f 9/94/71 14/95/72 21/96/73
f 20/97/74 14/98/64 22/99/75
f 17/100/62 20/101/69 22/102/76
f 14/103/72 17/104/77 22/105/78
f 23/106/79 17/107/55 24/108/80
f 17/109/81 4/110/82 24/111/83
f 4/112/58 23/113/84 24/114/85
f 17/115/77 23/116/86 25/117/87
f 20/118/88 17/119/81 25/120/89
f 23/121/84 20/122/74 25/123/90
f 20/122/67 26/124/91 27/125/92
f 26/126/93 9/127/71 27/128/94
f 9/129/95 20/130/96 27/131/97
f 26/132/98 20/133/88 28/134/99
f 23/135/86 26/136/93 28/137/100
f 20/138/96 23/139/101 28/140/102
f 2/141/2 23/142/79 29/143/103
f 23/144/104 4/145/7 29/146/105
f 4/147/82 2/148/106 29/149/107
f 23/150/101 2/151/108 30/152/109
f 26/153/110 23/154/104 30/155/111
f 2/156/106 26/157/98 30/158/112
f 26/157/91 6/159/17 31/160/113
f 6/161/114 9/162/95 31/163/115
f 9/164/21 26/165/116 31/166/117
f 6/167/15 26/168/110 32/169/118
f 2/170/108 6/171/114 32/172/119
f 26/173/116 2/174/10 32/175/120
# 32 vertices
# 175 texture params
# 120 normals
# 60 facets

# 1 groups
